<svg id="_x31__px" height="512" viewBox="0 0 24 24" width="512" xmlns="http://www.w3.org/2000/svg"><path d="m.77 15c-.229 0-.435-.158-.487-.39-.188-.832-.283-1.71-.283-2.61 0-6.617 5.383-12 12-12 3.8 0 7.409 1.83 9.653 4.895.163.223.115.536-.108.699-.223.164-.537.114-.699-.108-2.056-2.809-5.364-4.486-8.846-4.486-6.065 0-11 4.935-11 11 0 .827.087 1.631.258 2.39.061.27-.108.537-.378.598-.037.008-.074.012-.11.012z"/><path d="m12 24c-3.8 0-7.409-1.83-9.653-4.895-.163-.223-.115-.536.108-.699.222-.165.536-.116.699.108 2.056 2.809 5.364 4.486 8.846 4.486 6.065 0 11-4.935 11-11 0-.838-.089-1.641-.266-2.384-.064-.269.102-.539.371-.602.271-.065.539.102.602.371.194.819.293 1.699.293 2.615 0 6.617-5.383 12-12 12z"/><path d="m2.55 22c-.272 0-.495-.218-.5-.492l-.05-3c-.002-.134.049-.263.144-.359.093-.095.222-.149.356-.149h3c.276 0 .5.224.5.5s-.224.5-.5.5h-2.492l.042 2.492c.005.276-.215.503-.491.508-.003 0-.006 0-.009 0z"/><path d="m21.5 6h-3c-.276 0-.5-.224-.5-.5s.224-.5.5-.5h2.5v-2.5c0-.276.224-.5.5-.5s.5.224.5.5v3c0 .276-.224.5-.5.5z"/><path d="m10.086 18c-.401 0-.778-.156-1.061-.439l-2.585-2.586c-.284-.283-.44-.66-.44-1.061 0-.4.156-.777.439-1.061l.586-.586c.584-.585 1.536-.584 2.121 0l2.586 2.586c.584.585.584 1.537 0 2.121l-.586.586c-.283.284-.66.44-1.06.44zm-2-5.171c-.128 0-.256.049-.354.146l-.586.586c-.094.094-.146.22-.146.353 0 .134.052.259.146.353l2.586 2.586c.19.189.518.189.707 0l.586-.586c.195-.195.195-.512 0-.707l-2.585-2.586c-.098-.097-.226-.145-.354-.145z"/><path d="m15.914 12.171c-.384 0-.768-.146-1.061-.438l-2.586-2.586c-.584-.585-.584-1.537 0-2.121l.586-.586c.566-.567 1.555-.566 2.122 0l2.585 2.586c.284.282.44.659.44 1.06 0 .4-.156.777-.439 1.061l-.586.586c-.292.292-.677.438-1.061.438zm-2-5.171c-.133 0-.259.052-.354.146l-.586.586c-.195.195-.195.512 0 .707l2.585 2.586c.195.194.512.194.707 0l.586-.586c.096-.094.148-.22.148-.353 0-.134-.052-.259-.146-.353l-2.586-2.586c-.095-.095-.22-.147-.354-.147z"/><path d="m10.25 14.25c-.128 0-.256-.049-.354-.146-.195-.195-.195-.512 0-.707l3.5-3.5c.195-.195.512-.195.707 0s.195.512 0 .707l-3.5 3.5c-.097.097-.225.146-.353.146z"/></svg>